#define popneural_width 379
#define popneural_height 49
static char popneural_bits[] = {
 0x00,0x00,0x00,0x00,0x00,0x00,0x00,0x00,0x00,0x00,0x00,0x00,0x00,0x00,0x00,
 0x00,0x00,0x00,0x00,0x00,0x00,0x00,0x00,0x00,0x00,0x00,0x00,0x00,0x00,0x00,
 0x00,0x00,0x00,0x00,0x00,0x00,0x00,0x00,0x00,0x00,0x00,0x00,0x00,0x00,0x00,
 0x00,0x00,0xf8,0x00,0x00,0x00,0x00,0x00,0x00,0x00,0x00,0x00,0x00,0x00,0x00,
 0x00,0x00,0x00,0x00,0x00,0x00,0x00,0x00,0x00,0x00,0x00,0x00,0x00,0x00,0x00,
 0x00,0x00,0x00,0x00,0x00,0x00,0x00,0x00,0x00,0x00,0x00,0x00,0x00,0x00,0x00,
 0x00,0x00,0x00,0x00,0x00,0xf8,0x00,0x00,0xe0,0xff,0xff,0xff,0xff,0xff,0x1f,
 0x00,0x00,0x00,0x00,0x00,0x00,0x00,0x00,0x00,0x00,0x00,0x00,0x00,0x00,0x00,
 0x00,0x00,0x00,0x00,0x00,0x00,0x00,0x00,0x00,0x00,0x00,0x00,0x00,0x00,0x00,
 0x00,0x00,0x00,0x00,0x00,0x00,0x00,0x00,0xf8,0x00,0x00,0x20,0x00,0x00,0x00,
 0x00,0x00,0x10,0x00,0x00,0x00,0x00,0x00,0x00,0x00,0x00,0x00,0x00,0x00,0x00,
 0x00,0x00,0x00,0x00,0x00,0x00,0x00,0x00,0x00,0x00,0x00,0x00,0x00,0x00,0x00,
 0x00,0x00,0x00,0x00,0x00,0x00,0x00,0x00,0x00,0x00,0x00,0xf8,0x00,0x00,0x10,
 0x00,0x00,0x00,0x00,0x00,0x08,0x00,0x00,0x00,0x00,0x00,0x00,0x00,0x00,0x00,
 0x00,0x00,0x00,0x00,0x00,0x00,0x00,0x00,0x00,0x00,0x00,0x00,0x00,0x00,0x00,
 0x00,0x00,0x00,0x00,0x00,0x00,0x00,0x00,0x00,0x00,0x00,0x00,0x00,0x00,0xf8,
 0x00,0x00,0x10,0x00,0x00,0xf0,0x03,0x00,0x08,0x00,0x00,0x00,0x00,0x00,0x00,
 0x00,0x00,0x00,0x00,0x00,0x00,0x00,0x00,0x00,0x00,0x00,0x00,0x00,0x00,0x00,
 0x00,0x00,0x00,0x00,0x00,0x00,0x00,0x00,0x00,0x00,0x00,0x00,0x00,0x00,0x00,
 0x00,0x00,0xf8,0x00,0x00,0x10,0x00,0x00,0xfc,0x0f,0x00,0x08,0x00,0x00,0x00,
 0x00,0x00,0x00,0x00,0x00,0x00,0x00,0x00,0x00,0x00,0x00,0x00,0x00,0x00,0x00,
 0x00,0x00,0x00,0x00,0x00,0x00,0x00,0x00,0x00,0x00,0x00,0x00,0x00,0x00,0x00,
 0x00,0x00,0x00,0x00,0x00,0xf8,0x00,0x00,0x08,0x00,0x00,0x3f,0x18,0x00,0x04,
 0x00,0x00,0x00,0x00,0x00,0x00,0x00,0x00,0x00,0x00,0x00,0x00,0x00,0x00,0x00,
 0x00,0x00,0x00,0x00,0x00,0x00,0x00,0x00,0x00,0x00,0x00,0x00,0x00,0x00,0x00,
 0x00,0x00,0x00,0x00,0x00,0x00,0x00,0x00,0xf8,0x00,0x00,0x08,0x00,0x80,0x1f,
 0x20,0x00,0x04,0x00,0x00,0x00,0x00,0x00,0x00,0x00,0x00,0x00,0x00,0x00,0x00,
 0x00,0x00,0x00,0x00,0x00,0x00,0x00,0x00,0x00,0x00,0x00,0x00,0x00,0x00,0x00,
 0x00,0x00,0x00,0x00,0x00,0x00,0x00,0x00,0x00,0x00,0x00,0xf8,0x00,0x00,0x04,
 0x00,0xc0,0x0f,0x00,0x00,0x04,0x00,0x00,0x00,0x00,0x00,0x00,0x00,0x00,0x00,
 0x00,0x00,0x00,0x00,0x00,0x00,0x00,0x00,0x00,0x00,0x00,0x00,0x00,0x00,0x00,
 0x00,0x00,0x00,0x00,0x00,0x00,0x00,0x00,0x00,0x00,0x00,0x00,0x00,0x00,0xf8,
 0x00,0x00,0xc4,0xff,0xdf,0xef,0xff,0x3f,0x02,0x00,0x00,0x00,0x00,0x00,0x00,
 0x00,0x00,0x00,0x00,0x00,0x00,0x00,0x00,0x00,0x00,0x00,0x00,0x00,0x00,0x00,
 0x00,0x00,0x00,0x00,0x00,0x00,0x00,0x00,0x00,0x00,0x00,0x00,0x00,0x00,0x00,
 0x00,0x00,0xf8,0x00,0x00,0xe4,0xff,0xef,0xf7,0xff,0x1f,0x02,0x00,0x00,0x00,
 0x00,0x00,0x00,0x00,0x00,0x00,0x00,0x00,0x00,0x00,0x00,0x00,0x00,0x00,0x00,
 0x00,0x00,0x00,0x00,0x00,0x00,0x00,0x00,0x00,0x00,0x00,0x00,0x00,0x00,0x00,
 0x00,0x00,0x00,0x00,0x00,0xf8,0x00,0x00,0x02,0x00,0xe0,0x07,0x00,0x00,0x02,
 0xfc,0xff,0x03,0x00,0x00,0x00,0x00,0xc0,0x1f,0x00,0x00,0x00,0x00,0x00,0x00,
 0x00,0x00,0x00,0x00,0x00,0x00,0x00,0x00,0x00,0x00,0x00,0x00,0x00,0x00,0xfe,
 0x1f,0xfc,0x01,0x3e,0x00,0x00,0xf0,0x00,0xf8,0x00,0x00,0xe2,0xff,0xf0,0xc3,
 0xff,0x00,0x01,0xf0,0x87,0x0f,0x00,0x00,0x00,0x00,0x80,0x1f,0x00,0x00,0x00,
 0x00,0x00,0x00,0xf0,0x07,0xf0,0x07,0x00,0x00,0x00,0x00,0x00,0x00,0x00,0x00,
 0xfc,0x01,0xfc,0x03,0xf0,0x80,0xff,0x00,0x00,0x9c,0x03,0xf8,0x00,0x00,0xe2,
 0x7f,0xf0,0x83,0x7f,0x00,0x01,0xe0,0x07,0x1f,0x00,0x00,0x00,0x00,0x00,0x1f,
 0x00,0x00,0x00,0x00,0x00,0x00,0xc0,0x0f,0xe0,0x03,0x00,0x00,0x00,0x00,0x00,
 0x00,0x00,0x00,0xf0,0x00,0xf8,0x03,0x70,0xc0,0xff,0x01,0x00,0x9e,0x07,0xf8,
 0x00,0x00,0xc1,0x1f,0xf8,0x01,0x3f,0x00,0x01,0xe0,0x07,0x3f,0x00,0x00,0x00,
 0x00,0x00,0x1f,0x00,0x00,0x00,0x00,0x00,0x00,0x80,0x0f,0xc0,0x01,0x00,0x00,
 0x00,0x00,0x00,0x00,0x00,0x00,0xf0,0x00,0xf0,0x03,0x30,0xe0,0xff,0x01,0x00,
 0x0f,0x0f,0xf8,0x00,0x00,0xc1,0x0f,0xf8,0x81,0x1f,0x80,0x00,0xe0,0x07,0x7e,
 0x00,0x00,0x00,0x00,0x00,0x1f,0x00,0x00,0x00,0x00,0x00,0x00,0x80,0x1f,0xc0,
 0x01,0x00,0x00,0x00,0x00,0x00,0x00,0x00,0x00,0xf0,0x00,0xf0,0x07,0x30,0x60,
 0xf8,0x03,0x00,0x0f,0x0f,0xf8,0x00,0x00,0xc1,0x0f,0xf8,0x81,0x1f,0x80,0x00,
 0xe0,0x07,0x7e,0x00,0x00,0x00,0x00,0x00,0x1f,0x00,0x00,0x00,0x00,0x00,0x00,
 0xc0,0x1f,0xc0,0x00,0x00,0x00,0x00,0x00,0x00,0x00,0x00,0x00,0xf8,0x00,0xf0,
 0x07,0x18,0x10,0xf0,0x03,0x80,0x0f,0x1f,0xf8,0x00,0x80,0xe0,0x07,0xfc,0x80,
 0x1f,0x80,0x00,0xe0,0x07,0x7e,0x00,0x00,0x00,0x00,0x00,0x1f,0x00,0x00,0x00,
 0x00,0x00,0x00,0xc0,0x3f,0xc0,0x00,0x00,0x00,0x00,0x00,0x00,0x00,0x00,0x00,
 0x78,0x00,0xe0,0x07,0x18,0x10,0xe0,0x03,0x80,0x0f,0x1f,0xf8,0x00,0x80,0xe0,
 0x07,0xfc,0xc0,0x0f,0x40,0x00,0xe0,0x07,0x7e,0x00,0x00,0x00,0x00,0x00,0x1f,
 0x00,0x00,0x00,0x00,0x00,0x00,0x40,0x3e,0xe0,0x00,0x00,0x00,0x00,0x00,0x00,
 0x00,0x00,0x00,0x78,0x00,0xe0,0x0f,0x18,0x00,0xe0,0x03,0x80,0x0f,0x1f,0xf8,
 0x00,0x40,0xf0,0x03,0x7e,0xc0,0x0f,0x40,0x00,0xe0,0x07,0x7e,0xe0,0x07,0xfc,
 0xf9,0x00,0x1f,0xe0,0x07,0x80,0xff,0x07,0x00,0x60,0x7e,0x60,0x00,0x3e,0x80,
 0x07,0x0f,0x78,0x0e,0x78,0x1e,0x78,0x00,0xc0,0x0f,0x0c,0x00,0xe0,0x03,0xc0,
 0x0f,0x3f,0xf8,0x00,0x40,0xf0,0x03,0x7e,0xe0,0x07,0x40,0x00,0xe0,0x07,0x7e,
 0x78,0x1e,0xf8,0xfd,0x01,0x1f,0x78,0x1e,0xe0,0xf1,0x07,0x00,0x60,0x7c,0x60,
 0x00,0x7f,0xf0,0x87,0x07,0x7f,0x1f,0xfc,0x0e,0x7c,0x00,0xc0,0x1f,0x0c,0x00,
 0xe0,0x03,0xc0,0x0f,0x3f,0xf8,0x00,0x40,0xf0,0x03,0x7e,0xe0,0x07,0x20,0x00,
 0xe0,0x07,0x3f,0x3c,0x3c,0xf0,0xfd,0x03,0x1f,0x3c,0x3c,0xf0,0xf1,0x01,0x00,
 0x60,0xfc,0x60,0xc0,0xf3,0xc0,0x83,0x07,0xbc,0x1f,0x9e,0x0f,0x3c,0x00,0xc0,
 0x1f,0x06,0x00,0xe0,0x01,0xc0,0x0f,0x3f,0xf8,0x00,0x20,0xf8,0x01,0x3f,0xe0,
 0x07,0x20,0x00,0xe0,0x07,0x1f,0x3e,0x7c,0xf0,0xe3,0x07,0x1f,0x3e,0x7c,0xf0,
 0xe0,0x01,0x00,0x30,0xf8,0x30,0xe0,0xe1,0xc0,0x83,0x07,0xbc,0x1f,0x8f,0x0f,
 0x3c,0x00,0x80,0x1f,0x06,0x00,0xf0,0x01,0xc0,0x0f,0x3f,0xf8,0x00,0x20,0xf8,
 0x01,0x3f,0xf0,0x03,0x10,0x00,0xe0,0xc7,0x0f,0x1e,0x78,0xf0,0xc1,0x07,0x1f,
 0x1e,0x78,0xf8,0xe0,0x03,0x00,0x30,0xf8,0x31,0xf0,0xe1,0xe0,0xc3,0x07,0xfe,
 0x8e,0x87,0x0f,0x3c,0x00,0x80,0x3f,0x06,0x00,0xf0,0x00,0xc0,0x0f,0x3f,0xf8,
 0x00,0x20,0xf8,0x01,0x3f,0xf0,0x03,0x10,0x00,0xe0,0xff,0x01,0x1f,0xf8,0xf0,
 0x81,0x0f,0x1f,0x1f,0xf8,0xf8,0xe0,0xe3,0x1f,0x30,0xf0,0x31,0xf0,0x70,0xe0,
 0xc1,0x03,0x5e,0xc0,0x87,0x07,0x1e,0x00,0x00,0x3f,0x03,0x00,0x70,0x00,0xc0,
 0x0f,0x3f,0xf8,0x00,0x10,0xfc,0x80,0x1f,0xf0,0x03,0x10,0x00,0xe0,0x07,0x00,
 0x1f,0xf8,0xf0,0x81,0x0f,0x1f,0x1f,0xf8,0xf8,0xe0,0xe3,0x1f,0x30,0xf0,0x39,
 0xf8,0x70,0xe0,0xc1,0x03,0x3e,0xc0,0x83,0x07,0x1e,0x00,0x00,0x3f,0x03,0x00,
 0x38,0x00,0xc0,0x0f,0x3f,0xf8,0x00,0x10,0xfc,0x80,0x1f,0xf8,0x01,0x08,0x00,
 0xe0,0x07,0x00,0x1f,0xf8,0xf0,0x81,0x0f,0x1f,0x1f,0xf8,0xf8,0xe0,0xe3,0x1f,
 0x18,0xf0,0x1b,0xf8,0x38,0xe0,0xe1,0x03,0x3e,0xe0,0x83,0x07,0x1e,0x00,0x00,
 0xfe,0x01,0x00,0x1c,0x00,0xc0,0x0f,0x3f,0xf8,0x00,0x10,0xfc,0x80,0x1f,0xf8,
 0x01,0x08,0x00,0xe0,0x07,0x00,0x1f,0xf8,0xf0,0x81,0x0f,0x1f,0x1f,0xf8,0xf8,
 0xe0,0xe1,0x1f,0x18,0xe0,0x1b,0x7c,0x1e,0xf0,0xe1,0x03,0x1f,0xe0,0xc1,0x07,
 0x1f,0x00,0x00,0xfe,0x01,0x00,0x0c,0x00,0xc0,0x0f,0x3f,0xf8,0x00,0x08,0x7e,
 0xc0,0x0f,0xfc,0x00,0x08,0x00,0xe0,0x07,0x00,0x1f,0xf8,0xf0,0x81,0x0f,0x1f,
 0x1f,0xf8,0xf0,0xe1,0x01,0x00,0x18,0xe0,0x1f,0xfc,0x07,0xf0,0xe0,0x01,0x1f,
 0xf0,0xc1,0x03,0x0f,0x00,0x00,0xfe,0x01,0x00,0x06,0x04,0x80,0x0f,0x1f,0xf8,
 0x00,0x08,0x7e,0xc0,0x0f,0xfc,0x00,0x04,0x00,0xe0,0x07,0x00,0x1f,0xf8,0xf0,
 0x81,0x0f,0x1f,0x1f,0xf8,0xe0,0xf1,0x00,0x00,0x1c,0xc0,0x0f,0x7c,0x00,0xf0,
 0xf0,0x01,0x0f,0xf0,0xe1,0x03,0x0f,0x00,0x00,0xfc,0x00,0x00,0x03,0x06,0x80,
 0x0f,0x1f,0xf8,0x00,0x04,0x3f,0xe0,0x07,0xfc,0x80,0x04,0x00,0xe0,0x07,0x00,
 0x1f,0xf8,0xf0,0x81,0x0f,0x1f,0x1f,0xf8,0x00,0x3f,0x00,0x00,0x0c,0xc0,0x0f,
 0x7c,0x00,0xf0,0xe8,0x01,0x0f,0xf0,0xe1,0x03,0x4f,0x00,0x00,0xfc,0x00,0x80,
 0x01,0x83,0x87,0x0f,0x1f,0xf8,0x00,0x04,0x3f,0xe0,0x07,0x7e,0x40,0x04,0x00,
 0xe0,0x07,0x00,0x1e,0x78,0xf0,0xc1,0x07,0x1f,0x1e,0x78,0xc0,0x00,0x00,0x00,
 0x0c,0x80,0x0f,0x7c,0x30,0xf8,0xf8,0x89,0x0f,0xf0,0xf1,0x93,0x47,0x00,0x00,
 0x78,0x00,0xc0,0xff,0xc3,0x0f,0x0f,0x0f,0xf8,0x00,0x84,0x3f,0xe0,0x07,0x7e,
 0x60,0x02,0x00,0xe0,0x07,0x00,0x1e,0x78,0xf0,0xc1,0x07,0x1f,0x1e,0x78,0x70,
 0x00,0x00,0x00,0x0e,0x80,0x07,0x7c,0x30,0xf8,0xf6,0x84,0x07,0xf0,0xf9,0x89,
 0x27,0x00,0x00,0x78,0x00,0xe0,0xff,0xc3,0x0f,0x0f,0x0f,0xf8,0x00,0xc2,0x7f,
 0xf0,0x83,0xff,0x7f,0x02,0x00,0xe0,0x07,0x00,0x3c,0x3c,0xf0,0xe3,0x03,0x1f,
 0x3c,0x3c,0xf8,0x00,0x00,0x00,0x0e,0x00,0x07,0x78,0x18,0xf8,0xf3,0x87,0x07,
 0xf0,0xef,0x8f,0x3f,0x00,0x00,0x78,0x00,0xf0,0xff,0xc3,0x0f,0x9e,0x07,0xf8,
 0x00,0xe2,0x7f,0xf0,0xc3,0xff,0x3f,0x02,0x00,0xf0,0x0f,0x00,0x78,0x1e,0xf0,
 0xfd,0x81,0x3f,0x78,0x1e,0xf8,0xff,0x00,0x00,0x0f,0x00,0x07,0xf8,0x0f,0xf8,
 0xf1,0x83,0x07,0xe0,0xe7,0x87,0x1f,0x00,0x00,0x30,0x00,0xf8,0xff,0xc3,0x0f,
 0x9c,0x03,0xf8,0x00,0x02,0x00,0xf8,0x01,0x00,0x00,0x01,0x00,0xfc,0x3f,0x00,
 0xe0,0x07,0xf0,0x79,0xc0,0x7f,0xe0,0x07,0xf8,0xff,0x03,0x80,0x7f,0x00,0x06,
 0xe0,0x03,0xf0,0xe0,0xc0,0x03,0xc0,0xc3,0x01,0x0f,0x00,0x00,0x30,0x00,0xf8,
 0xff,0x81,0x07,0xf0,0x00,0xf8,0x00,0xe1,0xff,0xfb,0xfd,0xff,0x3f,0x01,0x00,
 0x00,0x00,0x00,0x00,0x00,0xf0,0x01,0x00,0x00,0x00,0x00,0xf0,0xff,0x07,0x00,
 0x00,0x00,0x00,0x00,0x00,0x00,0x00,0x00,0x00,0x00,0x00,0x00,0x00,0x00,0x00,
 0x00,0x00,0x00,0x00,0x00,0x00,0x00,0x00,0xf8,0x00,0xf1,0xff,0xfd,0xfe,0xff,
 0x1f,0x01,0x00,0x00,0x00,0x00,0x00,0x00,0xf0,0x01,0x00,0x00,0x00,0x00,0xe0,
 0xff,0x07,0x00,0x00,0x00,0x00,0x00,0x00,0x00,0x00,0x00,0x00,0x00,0x00,0x00,
 0x00,0x00,0x00,0x00,0x00,0x00,0x00,0x00,0x00,0x00,0x00,0xf8,0x00,0x01,0x00,
 0xfc,0x00,0x00,0x80,0x00,0x00,0x00,0x00,0x00,0x00,0x00,0xf0,0x01,0x00,0x00,
 0x00,0x00,0x70,0x80,0x07,0x00,0x00,0x00,0x00,0x00,0x00,0x00,0x00,0x00,0x00,
 0x00,0x00,0x00,0x00,0x00,0x00,0x00,0x00,0x00,0x00,0x00,0x00,0x00,0x00,0xf8,
 0x80,0x00,0x01,0x7e,0x00,0x00,0x80,0x00,0x00,0x00,0x00,0x00,0x00,0x00,0xf0,
 0x01,0x00,0x00,0x00,0x00,0x38,0x00,0x07,0x00,0x00,0x00,0x00,0x00,0x00,0x00,
 0x00,0x00,0x00,0x00,0x00,0x00,0x00,0x00,0x00,0x00,0x00,0x00,0x00,0x00,0x00,
 0x00,0x00,0xf8,0x80,0x00,0x06,0x3f,0x00,0x00,0x80,0x00,0x00,0x00,0x00,0x00,
 0x00,0x00,0xf0,0x01,0x00,0x00,0x00,0x00,0x38,0x00,0x07,0x00,0x00,0x00,0x00,
 0x00,0x00,0x00,0x00,0x00,0x00,0x00,0x00,0x00,0x00,0x00,0x00,0x00,0x00,0x00,
 0x00,0x00,0x00,0x00,0x00,0xf8,0x40,0x00,0xfc,0x0f,0x00,0x00,0x40,0x00,0x00,
 0x00,0x00,0x00,0x00,0x00,0xf0,0x01,0x00,0x00,0x00,0x00,0x38,0x00,0x03,0x00,
 0x00,0x00,0x00,0x00,0x00,0x00,0x00,0x00,0x00,0x00,0x00,0x00,0x00,0x00,0x00,
 0x00,0x00,0x00,0x00,0x00,0x00,0x00,0x00,0xf8,0x40,0x00,0xf0,0x03,0x00,0x00,
 0x40,0x00,0x00,0x00,0x00,0x00,0x00,0x00,0xf8,0x01,0x00,0x00,0x00,0x00,0x70,
 0x80,0x01,0x00,0x00,0x00,0x00,0x00,0x00,0x00,0x00,0x00,0x00,0x00,0x00,0x00,
 0x00,0x00,0x00,0x00,0x00,0x00,0x00,0x00,0x00,0x00,0x00,0xf8,0x40,0x00,0x00,
 0x00,0x00,0x00,0x40,0x00,0x00,0x00,0x00,0x00,0x00,0x00,0xfc,0x03,0x00,0x00,
 0x00,0x00,0xc0,0x7f,0x00,0x00,0x00,0x00,0x00,0x00,0x00,0x00,0x00,0x00,0x00,
 0x00,0x00,0x00,0x00,0x00,0x00,0x00,0x00,0x00,0x00,0x00,0x00,0x00,0x00,0xf8,
 0x20,0x00,0x00,0x00,0x00,0x00,0x20,0x00,0x00,0x00,0x00,0x00,0x00,0x00,0x00,
 0x00,0x00,0x00,0x00,0x00,0x00,0x00,0x00,0x00,0x00,0x00,0x00,0x00,0x00,0x00,
 0x00,0x00,0x00,0x00,0x00,0x00,0x00,0x00,0x00,0x00,0x00,0x00,0x00,0x00,0x00,
 0x00,0x00,0xf8,0xe0,0xff,0xff,0xff,0xff,0xff,0x3f,0x00,0x00,0x00,0x00,0x00,
 0x00,0x00,0x00,0x00,0x00,0x00,0x00,0x00,0x00,0x00,0x00,0x00,0x00,0x00,0x00,
 0x00,0x00,0x00,0x00,0x00,0x00,0x00,0x00,0x00,0x00,0x00,0x00,0x00,0x00,0x00,
 0x00,0x00,0x00,0x00,0x00,0xf8,0x00,0x00,0x00,0x00,0x00,0x00,0x00,0x00,0x00,
 0x00,0x00,0x00,0x00,0x00,0x00,0x00,0x00,0x00,0x00,0x00,0x00,0x00,0x00,0x00,
 0x00,0x00,0x00,0x00,0x00,0x00,0x00,0x00,0x00,0x00,0x00,0x00,0x00,0x00,0x00,
 0x00,0x00,0x00,0x00,0x00,0x00,0x00,0x00,0xf8,0x00,0x00,0x00,0x00,0x00,0x00,
 0x00,0x00,0x00,0x00,0x00,0x00,0x00,0x00,0x00,0x00,0x00,0x00,0x00,0x00,0x00,
 0x00,0x00,0x00,0x00,0x00,0x00,0x00,0x00,0x00,0x00,0x00,0x00,0x00,0x00,0x00,
 0x00,0x00,0x00,0x00,0x00,0x00,0x00,0x00,0x00,0x00,0x00,0xf8};
